#!OML:ASF F:\twosubjects\two\Thursday\Session 1\Rory.ASF
:FULLY-SPECIFIED
:DEGREES
352
root 12.3488 21.1367 8.56454 -152.321 -83.6395 155.119
lowerback -0.868139 -0.694746 -0.706004
upperback -0.668229 -0.925324 -0.184099
thorax -0.18905 -0.462056 0.200837
lowerneck -13.606 3.5027 4.44618
upperneck 13.6077 4.56046 -4.61468
head 6.59043 2.0299 -1.76662
rclavicle 1.54058e-014 4.77083e-015
rhumerus -6.75662 -43.1917 -5.81174
rradius 48.4986
rwrist -10.5473
rhand -35.2629 24.5151
rfingers 7.12502
rthumb -8.39852 -5.2979
lclavicle 1.54058e-014 4.77083e-015
lhumerus -2.45296 27.7876 5.80644
lradius 53.7161
lwrist 9.19705
lhand -16.6947 38.8115
lfingers 7.12502
lthumb 9.52992 68.576
rfemur -10.6216 16.9445 3.64138
rtibia 31.3741
rfoot 13.506 -3.49476
rtoes -10.4551
lfemur -6.72872 -5.23483 -6.20818
ltibia 27.8176
lfoot 14.1191 2.4473
ltoes 12.5895
353
root 12.3238 21.0137 8.57341 -150.153 -83.7863 152.886
lowerback -0.90407 -0.631354 -0.89255
upperback -0.658802 -0.839663 -0.289704
thorax -0.15896 -0.419129 0.197405
lowerneck -13.7798 3.38086 4.29311
upperneck 14.0088 4.38443 -4.33808
head 6.73063 1.95442 -1.668
rclavicle 3.86388e-015 9.93923e-016
rhumerus -5.84287 -43.512 -4.12247
rradius 48.7112
rwrist -10.2271
rhand -38.022 28.3201
rfingers 7.12502
rthumb -11.0604 -1.3685
lclavicle 3.86388e-015 9.93923e-016
lhumerus -0.0589075 29.0193 5.14577
lradius 53.4871
lwrist 8.97625
lhand -16.977 38.5215
lfingers 7.12502
lthumb 9.25749 68.2982
rfemur -10.2514 17.5169 3.02465
rtibia 30.9312
rfoot 13.0792 -4.18305
rtoes -9.85589
lfemur -6.59516 -5.88101 -5.70555
ltibia 27.3675
lfoot 13.7792 2.94158
ltoes 13.3329
354
root 12.2985 20.8767 8.57914 -148.483 -83.8533 151.082
lowerback -0.926156 -0.633272 -1.09845
upperback -0.612285 -0.840608 -0.420243
thorax -0.0980323 -0.419814 0.178566
lowerneck -13.7467 3.41985 4.51628
upperneck 14.1998 4.39926 -4.35559
head 6.7926 1.97061 -1.70884
rclavicle -1.31819e-014 1.19271e-015
rhumerus -4.52251 -44.1718 -3.26476
rradius 49.3107
rwrist -9.73356
rhand -38.6241 27.7208
rfingers 7.12502
rthumb -11.6412 -1.93583
lclavicle -1.31819e-014 1.19271e-015
lhumerus 2.02043 30.1033 4.11622
lradius 53.3987
lwrist 8.8716
lhand -17.1121 38.2213
lfingers 7.12502
lthumb 9.12714 68.0038
rfemur -9.82269 18.1751 2.42953
rtibia 30.483
rfoot 12.4159 -5.21069
rtoes -9.57281
lfemur -6.34187 -6.42052 -5.18827
ltibia 26.9033
lfoot 13.1731 3.63342
ltoes 11.5562
355
root 12.2748 20.7284 8.5882 -148.547 -83.916 150.967
lowerback -0.905194 -0.694855 -1.12914
upperback -0.541296 -0.922103 -0.501976
thorax -0.0371006 -0.461107 0.111152
lowerneck -13.3335 3.55663 4.72162
upperneck 13.9403 4.54829 -4.33114
head 6.64937 2.0628 -1.72475
rclavicle 5.35476e-015 -1.2921e-014
rhumerus -2.81153 -44.6913 -2.90398
rradius 49.977
rwrist -9.91639
rhand -39.5907 27.5423
rfingers 7.12502
rthumb -12.5732 -2.05936
lclavicle 5.35476e-015 -1.2921e-014
lhumerus 3.67574 31.0376 2.76649
lradius 53.6385
lwrist 8.76944
lhand -16.9788 38.2248
lfingers 7.12502
lthumb 9.25578 68.0016
rfemur -9.42401 18.5544 2.00142
rtibia 30.0595
rfoot 11.638 -5.4232
rtoes -11.2988
lfemur -5.9833 -6.68392 -4.51893
ltibia 26.4322
lfoot 12.5153 4.26063
ltoes 10.6659
356
root 12.253 20.5663 8.60278 -147.637 -84.0392 149.896
lowerback -0.843285 -0.827647 -1.24876
upperback -0.429332 -1.09722 -0.431188
thorax 0.0481812 -0.548741 0.248805
lowerneck -13.2841 3.66256 4.42195
upperneck 13.7971 4.72825 -4.18855
head 6.59262 2.14746 -1.61293
rclavicle -3.34828e-015 -9.93923e-016
rhumerus -0.809347 -45.2366 -2.36947
rradius 50.6922
rwrist -10.6441
rhand -40.1641 28.0416
rfingers 7.12502
rthumb -13.1259 -1.52525
lclavicle -3.34828e-015 -9.93923e-016
lhumerus 5.08068 32.2098 1.61424
lradius 53.9058
lwrist 8.7759
lhand -17.0347 38.3341
lfingers 7.12502
lthumb 9.2019 68.1133
rfemur -9.03353 18.7393 1.50067
rtibia 29.6973
rfoot 10.692 -5.59655
rtoes -12.9662
lfemur -5.71163 -7.01157 -3.9403
ltibia 25.9494
lfoot 12.1534 4.53645
ltoes 10.1703
